# xmcd
#
# Track frame offsets:
#	150
#	16506
#	27353
#	42964
#	60354
#	71577
#	86027
#	94464
#	110593
#	127001
#	138716
#	153613
#	163136
#	174166
#	186796
#
# Disc length: 2759 seconds
#
# Revision: 1
# Processed by: cddbd v1.5.2PL0 Copyright (c) Steve Scherf et al.
# Submitted via: audiograbber 1.83.01
#
DISCID=cb0ac50f
DTITLE=Various Artist - Classic Country Christmas
DYEAR=1900
DGENRE=
TTITLE0=Dolly Parton - Hard Candy Christmas
TTITLE1=Willie Nelson - Pretty Paper
TTITLE2=Johnny Cash - O Little Town of Bethlehem
TTITLE3=Crystal Gayle - Have Yourself A Merry Little Christmas
TTITLE4=Merle Haggard - White Christmas
TTITLE5=Tammy Wynette - It Came Upon A Midnight Clear
TTITLE6=George Jones - Joy To The World
TTITLE7=Alabama - Christmas In Dixie
TTITLE8=Anne Murray - I'll Be Home For Christmas
TTITLE9=Jimmy Dean - Blue Christmas
TTITLE10=Jerry Reed - Christmas Time's-a-Coming
TTITLE11=Charley Pride - Christmas In My Home Town
TTITLE12=Willie Nelson - Winter Wonderland
TTITLE13=Gatlin Brothers - O Holy Night
TTITLE14=Oak Ridge Boys - Silent Night
EXTD=
EXTT0=
EXTT1=
EXTT2=
EXTT3=
EXTT4=
EXTT5=
EXTT6=
EXTT7=
EXTT8=
EXTT9=
EXTT10=
EXTT11=
EXTT12=
EXTT13=
EXTT14=
PLAYORDER=
